solid OpenSCAD_Model
  facet normal -1 0 0
    outer loop
      vertex -50 -37.5 -23.5
      vertex -50 37.5 23.5
      vertex -50 37.5 -23.5
    endloop
  endfacet
  facet normal -1 -0 0
    outer loop
      vertex -50 37.5 23.5
      vertex -50 -37.5 -23.5
      vertex -50 -37.5 23.5
    endloop
  endfacet
  facet normal -0 0 1
    outer loop
      vertex -50 37.5 23.5
      vertex 50 -37.5 23.5
      vertex 50 37.5 23.5
    endloop
  endfacet
  facet normal 0 0 1
    outer loop
      vertex 50 -37.5 23.5
      vertex -50 37.5 23.5
      vertex -50 -37.5 23.5
    endloop
  endfacet
  facet normal 1 -0 0
    outer loop
      vertex 50 -37.5 23.5
      vertex 50 37.5 16
      vertex 50 37.5 23.5
    endloop
  endfacet
  facet normal 1 0 0
    outer loop
      vertex 50 37.5 16
      vertex 50 -37.5 23.5
      vertex 50 -37.5 16
    endloop
  endfacet
  facet normal 0 1 0
    outer loop
      vertex -16.1394 37.5 0.430542
      vertex -39.6215 37.5 -16.46
      vertex -40.128 37.5 -16.4067
    endloop
  endfacet
  facet normal 0 1 0
    outer loop
      vertex -13.3488 37.5 -12.6985
      vertex -39.1803 37.5 -16.7146
      vertex -39.6215 37.5 -16.46
    endloop
  endfacet
  facet normal 0 1 0
    outer loop
      vertex -13.3488 37.5 -12.6985
      vertex -38.8809 37.5 -17.1267
      vertex -39.1803 37.5 -16.7146
    endloop
  endfacet
  facet normal 0 1 0
    outer loop
      vertex -39.1803 37.5 -18.5354
      vertex -11.0407 37.5 -15.2619
      vertex -8.25 37.5 -17.2894
    endloop
  endfacet
  facet normal 0 1 0
    outer loop
      vertex -13.3488 37.5 -12.6985
      vertex -38.775 37.5 -17.625
      vertex -38.8809 37.5 -17.1267
    endloop
  endfacet
  facet normal 0 1 0
    outer loop
      vertex -13.3488 37.5 -12.6985
      vertex -38.8809 37.5 -18.1233
      vertex -38.775 37.5 -17.625
    endloop
  endfacet
  facet normal 0 1 0
    outer loop
      vertex -11.0407 37.5 -15.2619
      vertex -39.1803 37.5 -18.5354
      vertex -38.8809 37.5 -18.1233
    endloop
  endfacet
  facet normal 0 1 0
    outer loop
      vertex -39.6215 37.5 -18.79
      vertex -8.25 37.5 -17.2894
      vertex -5.09878 37.5 -18.6924
    endloop
  endfacet
  facet normal 0 1 0
    outer loop
      vertex -8.25 37.5 -17.2894
      vertex -39.6215 37.5 -18.79
      vertex -39.1803 37.5 -18.5354
    endloop
  endfacet
  facet normal 0 1 0
    outer loop
      vertex -50 37.5 -23.5
      vertex -39.6215 37.5 -18.79
      vertex -5.09878 37.5 -18.6924
    endloop
  endfacet
  facet normal 0 1 0
    outer loop
      vertex -50 37.5 -23.5
      vertex -5.09878 37.5 -18.6924
      vertex -1.72472 37.5 -19.4096
    endloop
  endfacet
  facet normal 0 1 0
    outer loop
      vertex 22.5 37.5 16
      vertex 5.09878 37.5 12.6924
      vertex 1.72472 37.5 13.4096
    endloop
  endfacet
  facet normal 0 1 0
    outer loop
      vertex 22.5 37.5 16
      vertex 8.25 37.5 11.2894
      vertex 5.09878 37.5 12.6924
    endloop
  endfacet
  facet normal 0 1 0
    outer loop
      vertex 22.5 37.5 16
      vertex 11.0407 37.5 9.26189
      vertex 8.25 37.5 11.2894
    endloop
  endfacet
  facet normal 0 1 0
    outer loop
      vertex 22.5 37.5 16
      vertex 13.3488 37.5 6.69846
      vertex 11.0407 37.5 9.26189
    endloop
  endfacet
  facet normal 0 1 0
    outer loop
      vertex 22.5 37.5 16
      vertex 15.0735 37.5 3.71115
      vertex 13.3488 37.5 6.69846
    endloop
  endfacet
  facet normal 0 1 0
    outer loop
      vertex 22.5 37.5 16
      vertex 16.1394 37.5 0.430542
      vertex 15.0735 37.5 3.71115
    endloop
  endfacet
  facet normal 0 1 0
    outer loop
      vertex 22.5 37.5 16
      vertex 16.2167 37.5 -0.304574
      vertex 16.1394 37.5 0.430542
    endloop
  endfacet
  facet normal 0 1 0
    outer loop
      vertex 22.5 37.5 16
      vertex 16.5 37.5 -3
      vertex 16.2167 37.5 -0.304574
    endloop
  endfacet
  facet normal 0 1 -0
    outer loop
      vertex 22.5 37.5 -23.5
      vertex 16.5 37.5 -3
      vertex 22.5 37.5 16
    endloop
  endfacet
  facet normal 0 1 0
    outer loop
      vertex 16.5 37.5 -3
      vertex 22.5 37.5 -23.5
      vertex 16.4227 37.5 -3.73512
    endloop
  endfacet
  facet normal 0 1 0
    outer loop
      vertex 1.72472 37.5 -19.4096
      vertex 22.5 37.5 -23.5
      vertex -1.72472 37.5 -19.4096
    endloop
  endfacet
  facet normal 0 1 0
    outer loop
      vertex 5.09878 37.5 -18.6924
      vertex 22.5 37.5 -23.5
      vertex 1.72472 37.5 -19.4096
    endloop
  endfacet
  facet normal 0 1 0
    outer loop
      vertex 8.25 37.5 -17.2894
      vertex 22.5 37.5 -23.5
      vertex 5.09878 37.5 -18.6924
    endloop
  endfacet
  facet normal 0 1 0
    outer loop
      vertex 11.0407 37.5 -15.2619
      vertex 22.5 37.5 -23.5
      vertex 8.25 37.5 -17.2894
    endloop
  endfacet
  facet normal 0 1 0
    outer loop
      vertex 13.3488 37.5 -12.6985
      vertex 22.5 37.5 -23.5
      vertex 11.0407 37.5 -15.2619
    endloop
  endfacet
  facet normal 0 1 0
    outer loop
      vertex 15.0735 37.5 -9.71115
      vertex 22.5 37.5 -23.5
      vertex 13.3488 37.5 -12.6985
    endloop
  endfacet
  facet normal 0 1 0
    outer loop
      vertex 16.1394 37.5 -6.43054
      vertex 22.5 37.5 -23.5
      vertex 15.0735 37.5 -9.71115
    endloop
  endfacet
  facet normal 0 1 0
    outer loop
      vertex 16.4227 37.5 -3.73512
      vertex 22.5 37.5 -23.5
      vertex 16.1394 37.5 -6.43054
    endloop
  endfacet
  facet normal 0 1 0
    outer loop
      vertex 22.5 37.5 16
      vertex 50 37.5 23.5
      vertex 50 37.5 16
    endloop
  endfacet
  facet normal 0 1 0
    outer loop
      vertex 50 37.5 23.5
      vertex 22.5 37.5 16
      vertex -50 37.5 23.5
    endloop
  endfacet
  facet normal 0 1 0
    outer loop
      vertex -1.72472 37.5 13.4096
      vertex 22.5 37.5 16
      vertex 1.72472 37.5 13.4096
    endloop
  endfacet
  facet normal 0 1 0
    outer loop
      vertex 22.5 37.5 16
      vertex -1.72472 37.5 13.4096
      vertex -50 37.5 23.5
    endloop
  endfacet
  facet normal 0 1 -0
    outer loop
      vertex -5.09878 37.5 12.6924
      vertex -50 37.5 23.5
      vertex -1.72472 37.5 13.4096
    endloop
  endfacet
  facet normal 0 1 -0
    outer loop
      vertex -8.25 37.5 11.2894
      vertex -50 37.5 23.5
      vertex -5.09878 37.5 12.6924
    endloop
  endfacet
  facet normal 0 1 -0
    outer loop
      vertex -11.0407 37.5 9.26189
      vertex -50 37.5 23.5
      vertex -8.25 37.5 11.2894
    endloop
  endfacet
  facet normal 0 1 -0
    outer loop
      vertex -13.3488 37.5 6.69846
      vertex -50 37.5 23.5
      vertex -11.0407 37.5 9.26189
    endloop
  endfacet
  facet normal 0 1 -0
    outer loop
      vertex -15.0735 37.5 3.71115
      vertex -50 37.5 23.5
      vertex -13.3488 37.5 6.69846
    endloop
  endfacet
  facet normal 0 1 -0
    outer loop
      vertex -16.1394 37.5 0.430542
      vertex -50 37.5 23.5
      vertex -15.0735 37.5 3.71115
    endloop
  endfacet
  facet normal 0 1 0
    outer loop
      vertex -39.6215 37.5 -16.46
      vertex -16.1394 37.5 0.430542
      vertex -16.5 37.5 -3
    endloop
  endfacet
  facet normal 0 1 0
    outer loop
      vertex -39.6215 37.5 -16.46
      vertex -16.5 37.5 -3
      vertex -16.1394 37.5 -6.43054
    endloop
  endfacet
  facet normal 0 1 0
    outer loop
      vertex -39.6215 37.5 -16.46
      vertex -16.1394 37.5 -6.43054
      vertex -15.0735 37.5 -9.71115
    endloop
  endfacet
  facet normal 0 1 0
    outer loop
      vertex -39.6215 37.5 -16.46
      vertex -15.0735 37.5 -9.71115
      vertex -13.3488 37.5 -12.6985
    endloop
  endfacet
  facet normal 0 1 0
    outer loop
      vertex -38.8809 37.5 -18.1233
      vertex -13.3488 37.5 -12.6985
      vertex -11.0407 37.5 -15.2619
    endloop
  endfacet
  facet normal 0 1 0
    outer loop
      vertex -16.1394 37.5 0.430542
      vertex -40.128 37.5 -16.4067
      vertex -50 37.5 23.5
    endloop
  endfacet
  facet normal 0 1 -0
    outer loop
      vertex -40.6125 37.5 -16.5641
      vertex -50 37.5 23.5
      vertex -40.128 37.5 -16.4067
    endloop
  endfacet
  facet normal 0 1 -0
    outer loop
      vertex -40.991 37.5 -16.905
      vertex -50 37.5 23.5
      vertex -40.6125 37.5 -16.5641
    endloop
  endfacet
  facet normal 0 1 0
    outer loop
      vertex -50 37.5 -23.5
      vertex -40.991 37.5 -16.905
      vertex -41.1982 37.5 -17.3703
    endloop
  endfacet
  facet normal 0 1 0
    outer loop
      vertex -50 37.5 -23.5
      vertex -41.1982 37.5 -17.3703
      vertex -41.1982 37.5 -17.8797
    endloop
  endfacet
  facet normal 0 1 0
    outer loop
      vertex -50 37.5 -23.5
      vertex -1.72472 37.5 -19.4096
      vertex 22.5 37.5 -23.5
    endloop
  endfacet
  facet normal 0 1 0
    outer loop
      vertex -40.991 37.5 -16.905
      vertex -50 37.5 -23.5
      vertex -50 37.5 23.5
    endloop
  endfacet
  facet normal 0 1 0
    outer loop
      vertex -40.991 37.5 -18.345
      vertex -50 37.5 -23.5
      vertex -41.1982 37.5 -17.8797
    endloop
  endfacet
  facet normal 0 1 0
    outer loop
      vertex -40.6125 37.5 -18.6859
      vertex -50 37.5 -23.5
      vertex -40.991 37.5 -18.345
    endloop
  endfacet
  facet normal 0 1 0
    outer loop
      vertex -40.128 37.5 -18.8433
      vertex -50 37.5 -23.5
      vertex -40.6125 37.5 -18.6859
    endloop
  endfacet
  facet normal 0 1 0
    outer loop
      vertex -39.6215 37.5 -18.79
      vertex -50 37.5 -23.5
      vertex -40.128 37.5 -18.8433
    endloop
  endfacet
  facet normal 0 0 -1
    outer loop
      vertex 22.5 -37.5 -23.5
      vertex -45 -32.5 -23.5
      vertex 22.5 -32.5 -23.5
    endloop
  endfacet
  facet normal -0 0 -1
    outer loop
      vertex -45 -32.5 -23.5
      vertex -50 -37.5 -23.5
      vertex -45 32.5 -23.5
    endloop
  endfacet
  facet normal 0 0 -1
    outer loop
      vertex -50 -37.5 -23.5
      vertex -45 -32.5 -23.5
      vertex 22.5 -37.5 -23.5
    endloop
  endfacet
  facet normal 0 0 -1
    outer loop
      vertex -45 32.5 -23.5
      vertex 22.5 37.5 -23.5
      vertex 22.5 32.5 -23.5
    endloop
  endfacet
  facet normal 0 0 -1
    outer loop
      vertex -45 32.5 -23.5
      vertex -50 37.5 -23.5
      vertex 22.5 37.5 -23.5
    endloop
  endfacet
  facet normal 0 0 -1
    outer loop
      vertex -50 37.5 -23.5
      vertex -45 32.5 -23.5
      vertex -50 -37.5 -23.5
    endloop
  endfacet
  facet normal 0 -1 0
    outer loop
      vertex -50 -37.5 23.5
      vertex 22.5 -37.5 16
      vertex 50 -37.5 23.5
    endloop
  endfacet
  facet normal 0 -1 0
    outer loop
      vertex -50 -37.5 23.5
      vertex -1.72472 -37.5 13.4096
      vertex 22.5 -37.5 16
    endloop
  endfacet
  facet normal 0 -1 0
    outer loop
      vertex -50 -37.5 23.5
      vertex -5.09878 -37.5 12.6924
      vertex -1.72472 -37.5 13.4096
    endloop
  endfacet
  facet normal 0 -1 0
    outer loop
      vertex -50 -37.5 23.5
      vertex -8.25 -37.5 11.2894
      vertex -5.09878 -37.5 12.6924
    endloop
  endfacet
  facet normal 0 -1 0
    outer loop
      vertex -50 -37.5 23.5
      vertex -11.0407 -37.5 9.26189
      vertex -8.25 -37.5 11.2894
    endloop
  endfacet
  facet normal 0 -1 0
    outer loop
      vertex -50 -37.5 23.5
      vertex -13.3488 -37.5 6.69846
      vertex -11.0407 -37.5 9.26189
    endloop
  endfacet
  facet normal 0 -1 0
    outer loop
      vertex -50 -37.5 23.5
      vertex -15.0735 -37.5 3.71115
      vertex -13.3488 -37.5 6.69846
    endloop
  endfacet
  facet normal 0 -1 0
    outer loop
      vertex -50 -37.5 23.5
      vertex -16.1394 -37.5 0.430542
      vertex -15.0735 -37.5 3.71115
    endloop
  endfacet
  facet normal 0 -1 0
    outer loop
      vertex -39.6215 -37.5 -16.46
      vertex -16.1394 -37.5 0.430542
      vertex -50 -37.5 23.5
    endloop
  endfacet
  facet normal 0 -1 0
    outer loop
      vertex -16.1394 -37.5 0.430542
      vertex -39.6215 -37.5 -16.46
      vertex -16.5 -37.5 -3
    endloop
  endfacet
  facet normal 0 -1 0
    outer loop
      vertex -39.1803 -37.5 -16.7146
      vertex -16.5 -37.5 -3
      vertex -39.6215 -37.5 -16.46
    endloop
  endfacet
  facet normal 0 -1 -0
    outer loop
      vertex -16.5 -37.5 -3
      vertex -39.1803 -37.5 -16.7146
      vertex -16.1394 -37.5 -6.43054
    endloop
  endfacet
  facet normal 0 -1 0
    outer loop
      vertex -38.8809 -37.5 -17.1267
      vertex -16.1394 -37.5 -6.43054
      vertex -39.1803 -37.5 -16.7146
    endloop
  endfacet
  facet normal 0 -1 0
    outer loop
      vertex -39.6215 -37.5 -16.46
      vertex -50 -37.5 23.5
      vertex -40.128 -37.5 -16.4067
    endloop
  endfacet
  facet normal 0 -1 0
    outer loop
      vertex -50 -37.5 23.5
      vertex -40.6125 -37.5 -16.5641
      vertex -40.128 -37.5 -16.4067
    endloop
  endfacet
  facet normal 0 -1 0
    outer loop
      vertex -50 -37.5 23.5
      vertex -40.991 -37.5 -16.905
      vertex -40.6125 -37.5 -16.5641
    endloop
  endfacet
  facet normal 0 -1 0
    outer loop
      vertex -50 -37.5 -23.5
      vertex -40.991 -37.5 -16.905
      vertex -50 -37.5 23.5
    endloop
  endfacet
  facet normal 0 -1 0
    outer loop
      vertex -40.991 -37.5 -16.905
      vertex -50 -37.5 -23.5
      vertex -41.1982 -37.5 -17.3703
    endloop
  endfacet
  facet normal 0 -1 0
    outer loop
      vertex 22.5 -37.5 -23.5
      vertex -1.72472 -37.5 -19.4096
      vertex -50 -37.5 -23.5
    endloop
  endfacet
  facet normal 0 -1 -0
    outer loop
      vertex -5.09878 -37.5 -18.6924
      vertex -50 -37.5 -23.5
      vertex -1.72472 -37.5 -19.4096
    endloop
  endfacet
  facet normal 0 -1 -0
    outer loop
      vertex -40.6125 -37.5 -18.6859
      vertex -50 -37.5 -23.5
      vertex -40.128 -37.5 -18.8433
    endloop
  endfacet
  facet normal 0 -1 -0
    outer loop
      vertex -40.991 -37.5 -18.345
      vertex -50 -37.5 -23.5
      vertex -40.6125 -37.5 -18.6859
    endloop
  endfacet
  facet normal 0 -1 -0
    outer loop
      vertex -41.1982 -37.5 -17.8797
      vertex -50 -37.5 -23.5
      vertex -40.991 -37.5 -18.345
    endloop
  endfacet
  facet normal 0 -1 -0
    outer loop
      vertex -41.1982 -37.5 -17.3703
      vertex -50 -37.5 -23.5
      vertex -41.1982 -37.5 -17.8797
    endloop
  endfacet
  facet normal 0 -1 -0
    outer loop
      vertex 50 -37.5 23.5
      vertex 22.5 -37.5 16
      vertex 50 -37.5 16
    endloop
  endfacet
  facet normal 0 -1 0
    outer loop
      vertex 1.72472 -37.5 13.4096
      vertex 22.5 -37.5 16
      vertex -1.72472 -37.5 13.4096
    endloop
  endfacet
  facet normal 0 -1 0
    outer loop
      vertex 5.09878 -37.5 12.6924
      vertex 22.5 -37.5 16
      vertex 1.72472 -37.5 13.4096
    endloop
  endfacet
  facet normal 0 -1 0
    outer loop
      vertex 8.25 -37.5 11.2894
      vertex 22.5 -37.5 16
      vertex 5.09878 -37.5 12.6924
    endloop
  endfacet
  facet normal 0 -1 0
    outer loop
      vertex 11.0407 -37.5 9.26189
      vertex 22.5 -37.5 16
      vertex 8.25 -37.5 11.2894
    endloop
  endfacet
  facet normal 0 -1 0
    outer loop
      vertex 13.3488 -37.5 6.69846
      vertex 22.5 -37.5 16
      vertex 11.0407 -37.5 9.26189
    endloop
  endfacet
  facet normal 0 -1 0
    outer loop
      vertex 15.0735 -37.5 3.71115
      vertex 22.5 -37.5 16
      vertex 13.3488 -37.5 6.69846
    endloop
  endfacet
  facet normal 0 -1 0
    outer loop
      vertex 16.1394 -37.5 0.430542
      vertex 22.5 -37.5 16
      vertex 15.0735 -37.5 3.71115
    endloop
  endfacet
  facet normal 0 -1 0
    outer loop
      vertex 16.4227 -37.5 -2.26488
      vertex 22.5 -37.5 16
      vertex 16.1394 -37.5 0.430542
    endloop
  endfacet
  facet normal 0 -1 0
    outer loop
      vertex 16.5 -37.5 -3
      vertex 22.5 -37.5 16
      vertex 16.4227 -37.5 -2.26488
    endloop
  endfacet
  facet normal 0 -1 0
    outer loop
      vertex 22.5 -37.5 -23.5
      vertex 16.5 -37.5 -3
      vertex 16.2167 -37.5 -5.69543
    endloop
  endfacet
  facet normal 0 -1 0
    outer loop
      vertex 22.5 -37.5 -23.5
      vertex 16.2167 -37.5 -5.69543
      vertex 16.1394 -37.5 -6.43054
    endloop
  endfacet
  facet normal 0 -1 0
    outer loop
      vertex 16.5 -37.5 -3
      vertex 22.5 -37.5 -23.5
      vertex 22.5 -37.5 16
    endloop
  endfacet
  facet normal 0 -1 0
    outer loop
      vertex 15.0735 -37.5 -9.71115
      vertex 22.5 -37.5 -23.5
      vertex 16.1394 -37.5 -6.43054
    endloop
  endfacet
  facet normal 0 -1 0
    outer loop
      vertex 13.3488 -37.5 -12.6985
      vertex 22.5 -37.5 -23.5
      vertex 15.0735 -37.5 -9.71115
    endloop
  endfacet
  facet normal 0 -1 0
    outer loop
      vertex 11.0407 -37.5 -15.2619
      vertex 22.5 -37.5 -23.5
      vertex 13.3488 -37.5 -12.6985
    endloop
  endfacet
  facet normal 0 -1 0
    outer loop
      vertex 8.25 -37.5 -17.2894
      vertex 22.5 -37.5 -23.5
      vertex 11.0407 -37.5 -15.2619
    endloop
  endfacet
  facet normal 0 -1 0
    outer loop
      vertex 5.09878 -37.5 -18.6924
      vertex 22.5 -37.5 -23.5
      vertex 8.25 -37.5 -17.2894
    endloop
  endfacet
  facet normal 0 -1 0
    outer loop
      vertex 1.72472 -37.5 -19.4096
      vertex 22.5 -37.5 -23.5
      vertex 5.09878 -37.5 -18.6924
    endloop
  endfacet
  facet normal 0 -1 0
    outer loop
      vertex -1.72472 -37.5 -19.4096
      vertex 22.5 -37.5 -23.5
      vertex 1.72472 -37.5 -19.4096
    endloop
  endfacet
  facet normal 0 -1 -0
    outer loop
      vertex -16.1394 -37.5 -6.43054
      vertex -38.8809 -37.5 -17.1267
      vertex -15.0735 -37.5 -9.71115
    endloop
  endfacet
  facet normal 0 -1 0
    outer loop
      vertex -38.775 -37.5 -17.625
      vertex -15.0735 -37.5 -9.71115
      vertex -38.8809 -37.5 -17.1267
    endloop
  endfacet
  facet normal 0 -1 -0
    outer loop
      vertex -15.0735 -37.5 -9.71115
      vertex -38.775 -37.5 -17.625
      vertex -13.3488 -37.5 -12.6985
    endloop
  endfacet
  facet normal 0 -1 0
    outer loop
      vertex -38.8809 -37.5 -18.1233
      vertex -13.3488 -37.5 -12.6985
      vertex -38.775 -37.5 -17.625
    endloop
  endfacet
  facet normal 0 -1 -0
    outer loop
      vertex -13.3488 -37.5 -12.6985
      vertex -38.8809 -37.5 -18.1233
      vertex -11.0407 -37.5 -15.2619
    endloop
  endfacet
  facet normal 0 -1 0
    outer loop
      vertex -39.1803 -37.5 -18.5354
      vertex -11.0407 -37.5 -15.2619
      vertex -38.8809 -37.5 -18.1233
    endloop
  endfacet
  facet normal 0 -1 -0
    outer loop
      vertex -11.0407 -37.5 -15.2619
      vertex -39.1803 -37.5 -18.5354
      vertex -8.25 -37.5 -17.2894
    endloop
  endfacet
  facet normal 0 -1 0
    outer loop
      vertex -39.6215 -37.5 -18.79
      vertex -8.25 -37.5 -17.2894
      vertex -39.1803 -37.5 -18.5354
    endloop
  endfacet
  facet normal 0 -1 -0
    outer loop
      vertex -8.25 -37.5 -17.2894
      vertex -39.6215 -37.5 -18.79
      vertex -5.09878 -37.5 -18.6924
    endloop
  endfacet
  facet normal 0 -1 0
    outer loop
      vertex -50 -37.5 -23.5
      vertex -39.6215 -37.5 -18.79
      vertex -40.128 -37.5 -18.8433
    endloop
  endfacet
  facet normal 0 -1 0
    outer loop
      vertex -50 -37.5 -23.5
      vertex -5.09878 -37.5 -18.6924
      vertex -39.6215 -37.5 -18.79
    endloop
  endfacet
  facet normal 1 -0 0
    outer loop
      vertex -45 -32.5 16
      vertex -45 32.5 -23.5
      vertex -45 32.5 16
    endloop
  endfacet
  facet normal 1 0 0
    outer loop
      vertex -45 32.5 -23.5
      vertex -45 -32.5 16
      vertex -45 -32.5 -23.5
    endloop
  endfacet
  facet normal 0 0 -1
    outer loop
      vertex -45 -32.5 16
      vertex 22.5 32.5 16
      vertex 22.5 -32.5 16
    endloop
  endfacet
  facet normal -0 0 -1
    outer loop
      vertex 22.5 32.5 16
      vertex -45 -32.5 16
      vertex -45 32.5 16
    endloop
  endfacet
  facet normal 0 0 -1
    outer loop
      vertex 22.5 -32.5 16
      vertex 50 -37.5 16
      vertex 22.5 -37.5 16
    endloop
  endfacet
  facet normal 0 0 -1
    outer loop
      vertex 50 -37.5 16
      vertex 22.5 -32.5 16
      vertex 50 37.5 16
    endloop
  endfacet
  facet normal 0 0 -1
    outer loop
      vertex 22.5 32.5 16
      vertex 50 37.5 16
      vertex 22.5 -32.5 16
    endloop
  endfacet
  facet normal -0 0 -1
    outer loop
      vertex 50 37.5 16
      vertex 22.5 32.5 16
      vertex 22.5 37.5 16
    endloop
  endfacet
  facet normal 0 -1 0
    outer loop
      vertex -45 32.5 16
      vertex -1.72472 32.5 13.4096
      vertex 22.5 32.5 16
    endloop
  endfacet
  facet normal 0 -1 0
    outer loop
      vertex -45 32.5 16
      vertex -5.09878 32.5 12.6924
      vertex -1.72472 32.5 13.4096
    endloop
  endfacet
  facet normal 0 -1 0
    outer loop
      vertex -45 32.5 16
      vertex -8.25 32.5 11.2894
      vertex -5.09878 32.5 12.6924
    endloop
  endfacet
  facet normal 0 -1 0
    outer loop
      vertex -45 32.5 16
      vertex -11.0407 32.5 9.26189
      vertex -8.25 32.5 11.2894
    endloop
  endfacet
  facet normal 0 -1 0
    outer loop
      vertex -45 32.5 16
      vertex -13.3488 32.5 6.69846
      vertex -11.0407 32.5 9.26189
    endloop
  endfacet
  facet normal 0 -1 0
    outer loop
      vertex -45 32.5 16
      vertex -15.0735 32.5 3.71115
      vertex -13.3488 32.5 6.69846
    endloop
  endfacet
  facet normal 0 -1 0
    outer loop
      vertex -45 32.5 16
      vertex -16.1394 32.5 0.430542
      vertex -15.0735 32.5 3.71115
    endloop
  endfacet
  facet normal 0 -1 0
    outer loop
      vertex -39.6215 32.5 -16.46
      vertex -16.1394 32.5 0.430542
      vertex -45 32.5 16
    endloop
  endfacet
  facet normal 0 -1 0
    outer loop
      vertex -16.1394 32.5 0.430542
      vertex -39.6215 32.5 -16.46
      vertex -16.5 32.5 -3
    endloop
  endfacet
  facet normal 0 -1 0
    outer loop
      vertex -39.1803 32.5 -16.7146
      vertex -16.5 32.5 -3
      vertex -39.6215 32.5 -16.46
    endloop
  endfacet
  facet normal 0 -1 -0
    outer loop
      vertex -16.5 32.5 -3
      vertex -39.1803 32.5 -16.7146
      vertex -16.1394 32.5 -6.43054
    endloop
  endfacet
  facet normal 0 -1 -0
    outer loop
      vertex -16.1394 32.5 -6.43054
      vertex -38.8809 32.5 -17.1267
      vertex -15.0735 32.5 -9.71115
    endloop
  endfacet
  facet normal 0 -1 0
    outer loop
      vertex -39.6215 32.5 -16.46
      vertex -45 32.5 16
      vertex -40.128 32.5 -16.4067
    endloop
  endfacet
  facet normal 0 -1 0
    outer loop
      vertex -45 32.5 16
      vertex -40.6125 32.5 -16.5641
      vertex -40.128 32.5 -16.4067
    endloop
  endfacet
  facet normal 0 -1 0
    outer loop
      vertex -45 32.5 16
      vertex -40.991 32.5 -16.905
      vertex -40.6125 32.5 -16.5641
    endloop
  endfacet
  facet normal 0 -1 0
    outer loop
      vertex -45 32.5 -23.5
      vertex -40.991 32.5 -16.905
      vertex -45 32.5 16
    endloop
  endfacet
  facet normal 0 -1 0
    outer loop
      vertex -40.991 32.5 -16.905
      vertex -45 32.5 -23.5
      vertex -41.1982 32.5 -17.3703
    endloop
  endfacet
  facet normal 0 -1 0
    outer loop
      vertex 22.5 32.5 -23.5
      vertex -1.72472 32.5 -19.4096
      vertex -45 32.5 -23.5
    endloop
  endfacet
  facet normal 0 -1 -0
    outer loop
      vertex -5.09878 32.5 -18.6924
      vertex -45 32.5 -23.5
      vertex -1.72472 32.5 -19.4096
    endloop
  endfacet
  facet normal 0 -1 -0
    outer loop
      vertex -40.6125 32.5 -18.6859
      vertex -45 32.5 -23.5
      vertex -40.128 32.5 -18.8433
    endloop
  endfacet
  facet normal 0 -1 -0
    outer loop
      vertex -40.991 32.5 -18.345
      vertex -45 32.5 -23.5
      vertex -40.6125 32.5 -18.6859
    endloop
  endfacet
  facet normal 0 -1 -0
    outer loop
      vertex -41.1982 32.5 -17.8797
      vertex -45 32.5 -23.5
      vertex -40.991 32.5 -18.345
    endloop
  endfacet
  facet normal 0 -1 -0
    outer loop
      vertex -41.1982 32.5 -17.3703
      vertex -45 32.5 -23.5
      vertex -41.1982 32.5 -17.8797
    endloop
  endfacet
  facet normal 0 -1 0
    outer loop
      vertex 1.72472 32.5 13.4096
      vertex 22.5 32.5 16
      vertex -1.72472 32.5 13.4096
    endloop
  endfacet
  facet normal 0 -1 0
    outer loop
      vertex 5.09878 32.5 12.6924
      vertex 22.5 32.5 16
      vertex 1.72472 32.5 13.4096
    endloop
  endfacet
  facet normal 0 -1 0
    outer loop
      vertex 8.25 32.5 11.2894
      vertex 22.5 32.5 16
      vertex 5.09878 32.5 12.6924
    endloop
  endfacet
  facet normal 0 -1 0
    outer loop
      vertex 11.0407 32.5 9.26189
      vertex 22.5 32.5 16
      vertex 8.25 32.5 11.2894
    endloop
  endfacet
  facet normal 0 -1 0
    outer loop
      vertex 13.3488 32.5 6.69846
      vertex 22.5 32.5 16
      vertex 11.0407 32.5 9.26189
    endloop
  endfacet
  facet normal 0 -1 0
    outer loop
      vertex 15.0735 32.5 3.71115
      vertex 22.5 32.5 16
      vertex 13.3488 32.5 6.69846
    endloop
  endfacet
  facet normal 0 -1 0
    outer loop
      vertex 16.1394 32.5 0.430542
      vertex 22.5 32.5 16
      vertex 15.0735 32.5 3.71115
    endloop
  endfacet
  facet normal 0 -1 0
    outer loop
      vertex 16.4742 32.5 -2.75496
      vertex 22.5 32.5 16
      vertex 16.1394 32.5 0.430542
    endloop
  endfacet
  facet normal 0 -1 0
    outer loop
      vertex 16.5 32.5 -3
      vertex 22.5 32.5 16
      vertex 16.4742 32.5 -2.75496
    endloop
  endfacet
  facet normal 0 -1 0
    outer loop
      vertex 22.5 32.5 -23.5
      vertex 16.5 32.5 -3
      vertex 16.1652 32.5 -6.1855
    endloop
  endfacet
  facet normal 0 -1 0
    outer loop
      vertex 22.5 32.5 -23.5
      vertex 16.1652 32.5 -6.1855
      vertex 16.1394 32.5 -6.43054
    endloop
  endfacet
  facet normal 0 -1 0
    outer loop
      vertex 16.5 32.5 -3
      vertex 22.5 32.5 -23.5
      vertex 22.5 32.5 16
    endloop
  endfacet
  facet normal 0 -1 0
    outer loop
      vertex 15.0735 32.5 -9.71115
      vertex 22.5 32.5 -23.5
      vertex 16.1394 32.5 -6.43054
    endloop
  endfacet
  facet normal 0 -1 0
    outer loop
      vertex 13.3488 32.5 -12.6985
      vertex 22.5 32.5 -23.5
      vertex 15.0735 32.5 -9.71115
    endloop
  endfacet
  facet normal 0 -1 0
    outer loop
      vertex 11.0407 32.5 -15.2619
      vertex 22.5 32.5 -23.5
      vertex 13.3488 32.5 -12.6985
    endloop
  endfacet
  facet normal 0 -1 0
    outer loop
      vertex 8.25 32.5 -17.2894
      vertex 22.5 32.5 -23.5
      vertex 11.0407 32.5 -15.2619
    endloop
  endfacet
  facet normal 0 -1 0
    outer loop
      vertex 5.09878 32.5 -18.6924
      vertex 22.5 32.5 -23.5
      vertex 8.25 32.5 -17.2894
    endloop
  endfacet
  facet normal 0 -1 0
    outer loop
      vertex 1.72472 32.5 -19.4096
      vertex 22.5 32.5 -23.5
      vertex 5.09878 32.5 -18.6924
    endloop
  endfacet
  facet normal 0 -1 0
    outer loop
      vertex -1.72472 32.5 -19.4096
      vertex 22.5 32.5 -23.5
      vertex 1.72472 32.5 -19.4096
    endloop
  endfacet
  facet normal 0 -1 0
    outer loop
      vertex -38.8809 32.5 -17.1267
      vertex -16.1394 32.5 -6.43054
      vertex -39.1803 32.5 -16.7146
    endloop
  endfacet
  facet normal 0 -1 0
    outer loop
      vertex -38.775 32.5 -17.625
      vertex -15.0735 32.5 -9.71115
      vertex -38.8809 32.5 -17.1267
    endloop
  endfacet
  facet normal 0 -1 -0
    outer loop
      vertex -15.0735 32.5 -9.71115
      vertex -38.775 32.5 -17.625
      vertex -13.3488 32.5 -12.6985
    endloop
  endfacet
  facet normal 0 -1 0
    outer loop
      vertex -38.8809 32.5 -18.1233
      vertex -13.3488 32.5 -12.6985
      vertex -38.775 32.5 -17.625
    endloop
  endfacet
  facet normal 0 -1 -0
    outer loop
      vertex -13.3488 32.5 -12.6985
      vertex -38.8809 32.5 -18.1233
      vertex -11.0407 32.5 -15.2619
    endloop
  endfacet
  facet normal 0 -1 0
    outer loop
      vertex -39.1803 32.5 -18.5354
      vertex -11.0407 32.5 -15.2619
      vertex -38.8809 32.5 -18.1233
    endloop
  endfacet
  facet normal 0 -1 -0
    outer loop
      vertex -11.0407 32.5 -15.2619
      vertex -39.1803 32.5 -18.5354
      vertex -8.25 32.5 -17.2894
    endloop
  endfacet
  facet normal 0 -1 0
    outer loop
      vertex -45 32.5 -23.5
      vertex -39.1803 32.5 -18.5354
      vertex -39.6215 32.5 -18.79
    endloop
  endfacet
  facet normal 0 -1 -0
    outer loop
      vertex -39.1803 32.5 -18.5354
      vertex -45 32.5 -23.5
      vertex -8.25 32.5 -17.2894
    endloop
  endfacet
  facet normal 0 -1 0
    outer loop
      vertex -45 32.5 -23.5
      vertex -39.6215 32.5 -18.79
      vertex -40.128 32.5 -18.8433
    endloop
  endfacet
  facet normal 0 -1 -0
    outer loop
      vertex -8.25 32.5 -17.2894
      vertex -45 32.5 -23.5
      vertex -5.09878 32.5 -18.6924
    endloop
  endfacet
  facet normal 0 1 0
    outer loop
      vertex -45 -32.5 16
      vertex -39.6215 -32.5 -16.46
      vertex -40.128 -32.5 -16.4067
    endloop
  endfacet
  facet normal 0 1 0
    outer loop
      vertex -13.3488 -32.5 -12.6985
      vertex -39.1803 -32.5 -16.7146
      vertex -39.6215 -32.5 -16.46
    endloop
  endfacet
  facet normal 0 1 0
    outer loop
      vertex -13.3488 -32.5 -12.6985
      vertex -38.8809 -32.5 -17.1267
      vertex -39.1803 -32.5 -16.7146
    endloop
  endfacet
  facet normal 0 1 0
    outer loop
      vertex -39.1803 -32.5 -18.5354
      vertex -11.0407 -32.5 -15.2619
      vertex -8.25 -32.5 -17.2894
    endloop
  endfacet
  facet normal 0 1 0
    outer loop
      vertex -13.3488 -32.5 -12.6985
      vertex -38.775 -32.5 -17.625
      vertex -38.8809 -32.5 -17.1267
    endloop
  endfacet
  facet normal 0 1 0
    outer loop
      vertex -13.3488 -32.5 -12.6985
      vertex -38.8809 -32.5 -18.1233
      vertex -38.775 -32.5 -17.625
    endloop
  endfacet
  facet normal 0 1 0
    outer loop
      vertex -11.0407 -32.5 -15.2619
      vertex -39.1803 -32.5 -18.5354
      vertex -38.8809 -32.5 -18.1233
    endloop
  endfacet
  facet normal 0 1 0
    outer loop
      vertex -45 -32.5 -23.5
      vertex -8.25 -32.5 -17.2894
      vertex -5.09878 -32.5 -18.6924
    endloop
  endfacet
  facet normal 0 1 0
    outer loop
      vertex -8.25 -32.5 -17.2894
      vertex -45 -32.5 -23.5
      vertex -39.1803 -32.5 -18.5354
    endloop
  endfacet
  facet normal 0 1 0
    outer loop
      vertex -39.1803 -32.5 -18.5354
      vertex -45 -32.5 -23.5
      vertex -39.6215 -32.5 -18.79
    endloop
  endfacet
  facet normal 0 1 0
    outer loop
      vertex -45 -32.5 -23.5
      vertex -5.09878 -32.5 -18.6924
      vertex -1.72472 -32.5 -19.4096
    endloop
  endfacet
  facet normal 0 1 0
    outer loop
      vertex -1.72472 -32.5 13.4096
      vertex 22.5 -32.5 16
      vertex 1.72472 -32.5 13.4096
    endloop
  endfacet
  facet normal 0 1 0
    outer loop
      vertex 22.5 -32.5 16
      vertex 5.09878 -32.5 12.6924
      vertex 1.72472 -32.5 13.4096
    endloop
  endfacet
  facet normal 0 1 0
    outer loop
      vertex 22.5 -32.5 16
      vertex 8.25 -32.5 11.2894
      vertex 5.09878 -32.5 12.6924
    endloop
  endfacet
  facet normal 0 1 0
    outer loop
      vertex 22.5 -32.5 16
      vertex 11.0407 -32.5 9.26189
      vertex 8.25 -32.5 11.2894
    endloop
  endfacet
  facet normal 0 1 0
    outer loop
      vertex 22.5 -32.5 16
      vertex 13.3488 -32.5 6.69846
      vertex 11.0407 -32.5 9.26189
    endloop
  endfacet
  facet normal 0 1 0
    outer loop
      vertex 22.5 -32.5 16
      vertex 15.0735 -32.5 3.71115
      vertex 13.3488 -32.5 6.69846
    endloop
  endfacet
  facet normal 0 1 0
    outer loop
      vertex 22.5 -32.5 16
      vertex 16.1394 -32.5 0.430542
      vertex 15.0735 -32.5 3.71115
    endloop
  endfacet
  facet normal 0 1 0
    outer loop
      vertex 22.5 -32.5 16
      vertex 16.1652 -32.5 0.185503
      vertex 16.1394 -32.5 0.430542
    endloop
  endfacet
  facet normal 0 1 0
    outer loop
      vertex 22.5 -32.5 16
      vertex 16.5 -32.5 -3
      vertex 16.1652 -32.5 0.185503
    endloop
  endfacet
  facet normal 0 1 -0
    outer loop
      vertex 22.5 -32.5 -23.5
      vertex 16.5 -32.5 -3
      vertex 22.5 -32.5 16
    endloop
  endfacet
  facet normal 0 1 0
    outer loop
      vertex 16.5 -32.5 -3
      vertex 22.5 -32.5 -23.5
      vertex 16.4742 -32.5 -3.24504
    endloop
  endfacet
  facet normal 0 1 0
    outer loop
      vertex 1.72472 -32.5 -19.4096
      vertex 22.5 -32.5 -23.5
      vertex -1.72472 -32.5 -19.4096
    endloop
  endfacet
  facet normal 0 1 0
    outer loop
      vertex 5.09878 -32.5 -18.6924
      vertex 22.5 -32.5 -23.5
      vertex 1.72472 -32.5 -19.4096
    endloop
  endfacet
  facet normal 0 1 0
    outer loop
      vertex 8.25 -32.5 -17.2894
      vertex 22.5 -32.5 -23.5
      vertex 5.09878 -32.5 -18.6924
    endloop
  endfacet
  facet normal 0 1 0
    outer loop
      vertex 11.0407 -32.5 -15.2619
      vertex 22.5 -32.5 -23.5
      vertex 8.25 -32.5 -17.2894
    endloop
  endfacet
  facet normal 0 1 0
    outer loop
      vertex 13.3488 -32.5 -12.6985
      vertex 22.5 -32.5 -23.5
      vertex 11.0407 -32.5 -15.2619
    endloop
  endfacet
  facet normal 0 1 0
    outer loop
      vertex 15.0735 -32.5 -9.71115
      vertex 22.5 -32.5 -23.5
      vertex 13.3488 -32.5 -12.6985
    endloop
  endfacet
  facet normal 0 1 0
    outer loop
      vertex 16.1394 -32.5 -6.43054
      vertex 22.5 -32.5 -23.5
      vertex 15.0735 -32.5 -9.71115
    endloop
  endfacet
  facet normal 0 1 0
    outer loop
      vertex 16.4742 -32.5 -3.24504
      vertex 22.5 -32.5 -23.5
      vertex 16.1394 -32.5 -6.43054
    endloop
  endfacet
  facet normal 0 1 0
    outer loop
      vertex 22.5 -32.5 16
      vertex -1.72472 -32.5 13.4096
      vertex -45 -32.5 16
    endloop
  endfacet
  facet normal 0 1 -0
    outer loop
      vertex -5.09878 -32.5 12.6924
      vertex -45 -32.5 16
      vertex -1.72472 -32.5 13.4096
    endloop
  endfacet
  facet normal 0 1 -0
    outer loop
      vertex -8.25 -32.5 11.2894
      vertex -45 -32.5 16
      vertex -5.09878 -32.5 12.6924
    endloop
  endfacet
  facet normal 0 1 -0
    outer loop
      vertex -11.0407 -32.5 9.26189
      vertex -45 -32.5 16
      vertex -8.25 -32.5 11.2894
    endloop
  endfacet
  facet normal 0 1 -0
    outer loop
      vertex -13.3488 -32.5 6.69846
      vertex -45 -32.5 16
      vertex -11.0407 -32.5 9.26189
    endloop
  endfacet
  facet normal 0 1 -0
    outer loop
      vertex -15.0735 -32.5 3.71115
      vertex -45 -32.5 16
      vertex -13.3488 -32.5 6.69846
    endloop
  endfacet
  facet normal 0 1 -0
    outer loop
      vertex -16.1394 -32.5 0.430542
      vertex -45 -32.5 16
      vertex -15.0735 -32.5 3.71115
    endloop
  endfacet
  facet normal 0 1 0
    outer loop
      vertex -39.6215 -32.5 -16.46
      vertex -16.1394 -32.5 0.430542
      vertex -16.5 -32.5 -3
    endloop
  endfacet
  facet normal 0 1 0
    outer loop
      vertex -39.6215 -32.5 -16.46
      vertex -16.5 -32.5 -3
      vertex -16.1394 -32.5 -6.43054
    endloop
  endfacet
  facet normal 0 1 0
    outer loop
      vertex -39.6215 -32.5 -16.46
      vertex -16.1394 -32.5 -6.43054
      vertex -15.0735 -32.5 -9.71115
    endloop
  endfacet
  facet normal 0 1 0
    outer loop
      vertex -39.6215 -32.5 -16.46
      vertex -15.0735 -32.5 -9.71115
      vertex -13.3488 -32.5 -12.6985
    endloop
  endfacet
  facet normal 0 1 0
    outer loop
      vertex -38.8809 -32.5 -18.1233
      vertex -13.3488 -32.5 -12.6985
      vertex -11.0407 -32.5 -15.2619
    endloop
  endfacet
  facet normal 0 1 -0
    outer loop
      vertex -39.6215 -32.5 -16.46
      vertex -45 -32.5 16
      vertex -16.1394 -32.5 0.430542
    endloop
  endfacet
  facet normal 0 1 -0
    outer loop
      vertex -40.6125 -32.5 -16.5641
      vertex -45 -32.5 16
      vertex -40.128 -32.5 -16.4067
    endloop
  endfacet
  facet normal 0 1 -0
    outer loop
      vertex -40.991 -32.5 -16.905
      vertex -45 -32.5 16
      vertex -40.6125 -32.5 -16.5641
    endloop
  endfacet
  facet normal 0 1 0
    outer loop
      vertex -45 -32.5 -23.5
      vertex -40.991 -32.5 -16.905
      vertex -41.1982 -32.5 -17.3703
    endloop
  endfacet
  facet normal 0 1 0
    outer loop
      vertex -45 -32.5 -23.5
      vertex -41.1982 -32.5 -17.3703
      vertex -41.1982 -32.5 -17.8797
    endloop
  endfacet
  facet normal 0 1 0
    outer loop
      vertex -45 -32.5 -23.5
      vertex -1.72472 -32.5 -19.4096
      vertex 22.5 -32.5 -23.5
    endloop
  endfacet
  facet normal 0 1 0
    outer loop
      vertex -40.991 -32.5 -16.905
      vertex -45 -32.5 -23.5
      vertex -45 -32.5 16
    endloop
  endfacet
  facet normal 0 1 0
    outer loop
      vertex -40.991 -32.5 -18.345
      vertex -45 -32.5 -23.5
      vertex -41.1982 -32.5 -17.8797
    endloop
  endfacet
  facet normal 0 1 0
    outer loop
      vertex -40.6125 -32.5 -18.6859
      vertex -45 -32.5 -23.5
      vertex -40.991 -32.5 -18.345
    endloop
  endfacet
  facet normal 0 1 0
    outer loop
      vertex -40.128 -32.5 -18.8433
      vertex -45 -32.5 -23.5
      vertex -40.6125 -32.5 -18.6859
    endloop
  endfacet
  facet normal 0 1 0
    outer loop
      vertex -39.6215 -32.5 -18.79
      vertex -45 -32.5 -23.5
      vertex -40.128 -32.5 -18.8433
    endloop
  endfacet
  facet normal -0.994522 6.88932e-08 -0.104528
    outer loop
      vertex 16.1394 -37.5 0.430542
      vertex 16.1652 -32.5 0.185503
      vertex 16.4227 -37.5 -2.26488
    endloop
  endfacet
  facet normal -0.994522 0 -0.10453
    outer loop
      vertex 16.1652 -32.5 0.185503
      vertex 16.1394 -37.5 0.430542
      vertex 16.1394 -32.5 0.430542
    endloop
  endfacet
  facet normal -0.951057 0 -0.309017
    outer loop
      vertex 16.1394 -37.5 0.430542
      vertex 15.0735 -32.5 3.71115
      vertex 16.1394 -32.5 0.430542
    endloop
  endfacet
  facet normal -0.951057 -0 -0.309017
    outer loop
      vertex 15.0735 -32.5 3.71115
      vertex 16.1394 -37.5 0.430542
      vertex 15.0735 -37.5 3.71115
    endloop
  endfacet
  facet normal -0.994522 -1.49531e-08 -0.10453
    outer loop
      vertex 16.4227 -37.5 -2.26488
      vertex 16.5 -32.5 -3
      vertex 16.5 -37.5 -3
    endloop
  endfacet
  facet normal -0.994522 1.58348e-07 -0.104529
    outer loop
      vertex 16.5 -32.5 -3
      vertex 16.4227 -37.5 -2.26488
      vertex 16.1652 -32.5 0.185503
    endloop
  endfacet
  facet normal 0.866025 0 -0.5
    outer loop
      vertex -13.3488 -37.5 6.69846
      vertex -15.0735 -32.5 3.71115
      vertex -13.3488 -32.5 6.69846
    endloop
  endfacet
  facet normal 0.866025 0 -0.5
    outer loop
      vertex -15.0735 -32.5 3.71115
      vertex -13.3488 -37.5 6.69846
      vertex -15.0735 -37.5 3.71115
    endloop
  endfacet
  facet normal 0.587785 0 -0.809017
    outer loop
      vertex -11.0407 -37.5 9.26189
      vertex -8.25 -32.5 11.2894
      vertex -8.25 -37.5 11.2894
    endloop
  endfacet
  facet normal 0.587785 0 -0.809017
    outer loop
      vertex -8.25 -32.5 11.2894
      vertex -11.0407 -37.5 9.26189
      vertex -11.0407 -32.5 9.26189
    endloop
  endfacet
  facet normal 0.207912 0 -0.978148
    outer loop
      vertex -5.09878 -37.5 12.6924
      vertex -1.72472 -32.5 13.4096
      vertex -1.72472 -37.5 13.4096
    endloop
  endfacet
  facet normal 0.207912 0 -0.978148
    outer loop
      vertex -1.72472 -32.5 13.4096
      vertex -5.09878 -37.5 12.6924
      vertex -5.09878 -32.5 12.6924
    endloop
  endfacet
  facet normal -0.866025 0 -0.5
    outer loop
      vertex 15.0735 -37.5 3.71115
      vertex 13.3488 -32.5 6.69846
      vertex 15.0735 -32.5 3.71115
    endloop
  endfacet
  facet normal -0.866025 -0 -0.5
    outer loop
      vertex 13.3488 -32.5 6.69846
      vertex 15.0735 -37.5 3.71115
      vertex 13.3488 -37.5 6.69846
    endloop
  endfacet
  facet normal -0.406737 0 -0.913545
    outer loop
      vertex 5.09878 -37.5 12.6924
      vertex 8.25 -32.5 11.2894
      vertex 8.25 -37.5 11.2894
    endloop
  endfacet
  facet normal -0.406737 0 -0.913545
    outer loop
      vertex 8.25 -32.5 11.2894
      vertex 5.09878 -37.5 12.6924
      vertex 5.09878 -32.5 12.6924
    endloop
  endfacet
  facet normal 0.951057 0 -0.309017
    outer loop
      vertex -15.0735 -37.5 3.71115
      vertex -16.1394 -32.5 0.430542
      vertex -15.0735 -32.5 3.71115
    endloop
  endfacet
  facet normal 0.951057 0 -0.309017
    outer loop
      vertex -16.1394 -32.5 0.430542
      vertex -15.0735 -37.5 3.71115
      vertex -16.1394 -37.5 0.430542
    endloop
  endfacet
  facet normal 0.994522 0 -0.104529
    outer loop
      vertex -16.1394 -37.5 0.430542
      vertex -16.5 -32.5 -3
      vertex -16.1394 -32.5 0.430542
    endloop
  endfacet
  facet normal 0.994522 0 -0.104529
    outer loop
      vertex -16.5 -32.5 -3
      vertex -16.1394 -37.5 0.430542
      vertex -16.5 -37.5 -3
    endloop
  endfacet
  facet normal 0.994522 -0 0.104529
    outer loop
      vertex -16.5 -37.5 -3
      vertex -16.1394 -32.5 -6.43054
      vertex -16.5 -32.5 -3
    endloop
  endfacet
  facet normal 0.994522 0 0.104529
    outer loop
      vertex -16.1394 -32.5 -6.43054
      vertex -16.5 -37.5 -3
      vertex -16.1394 -37.5 -6.43054
    endloop
  endfacet
  facet normal -0.951057 0 0.309017
    outer loop
      vertex 15.0735 -37.5 -9.71115
      vertex 16.1394 -32.5 -6.43054
      vertex 15.0735 -32.5 -9.71115
    endloop
  endfacet
  facet normal -0.951057 0 0.309017
    outer loop
      vertex 16.1394 -32.5 -6.43054
      vertex 15.0735 -37.5 -9.71115
      vertex 16.1394 -37.5 -6.43054
    endloop
  endfacet
  facet normal 0.951057 -0 0.309017
    outer loop
      vertex -16.1394 -37.5 -6.43054
      vertex -15.0735 -32.5 -9.71115
      vertex -16.1394 -32.5 -6.43054
    endloop
  endfacet
  facet normal 0.951057 0 0.309017
    outer loop
      vertex -15.0735 -32.5 -9.71115
      vertex -16.1394 -37.5 -6.43054
      vertex -15.0735 -37.5 -9.71115
    endloop
  endfacet
  facet normal -0.207912 0 0.978148
    outer loop
      vertex 1.72472 -32.5 -19.4096
      vertex 5.09878 -37.5 -18.6924
      vertex 5.09878 -32.5 -18.6924
    endloop
  endfacet
  facet normal -0.207912 0 0.978148
    outer loop
      vertex 5.09878 -37.5 -18.6924
      vertex 1.72472 -32.5 -19.4096
      vertex 1.72472 -37.5 -19.4096
    endloop
  endfacet
  facet normal -0.866025 0 0.5
    outer loop
      vertex 13.3488 -37.5 -12.6985
      vertex 15.0735 -32.5 -9.71115
      vertex 13.3488 -32.5 -12.6985
    endloop
  endfacet
  facet normal -0.866025 0 0.5
    outer loop
      vertex 15.0735 -32.5 -9.71115
      vertex 13.3488 -37.5 -12.6985
      vertex 15.0735 -37.5 -9.71115
    endloop
  endfacet
  facet normal -0.587785 0 0.809017
    outer loop
      vertex 8.25 -32.5 -17.2894
      vertex 11.0407 -37.5 -15.2619
      vertex 11.0407 -32.5 -15.2619
    endloop
  endfacet
  facet normal -0.587785 0 0.809017
    outer loop
      vertex 11.0407 -37.5 -15.2619
      vertex 8.25 -32.5 -17.2894
      vertex 8.25 -37.5 -17.2894
    endloop
  endfacet
  facet normal 0.406737 0 -0.913545
    outer loop
      vertex -8.25 -37.5 11.2894
      vertex -5.09878 -32.5 12.6924
      vertex -5.09878 -37.5 12.6924
    endloop
  endfacet
  facet normal 0.406737 0 -0.913545
    outer loop
      vertex -5.09878 -32.5 12.6924
      vertex -8.25 -37.5 11.2894
      vertex -8.25 -32.5 11.2894
    endloop
  endfacet
  facet normal -0.207912 0 -0.978148
    outer loop
      vertex 1.72472 -37.5 13.4096
      vertex 5.09878 -32.5 12.6924
      vertex 5.09878 -37.5 12.6924
    endloop
  endfacet
  facet normal -0.207912 0 -0.978148
    outer loop
      vertex 5.09878 -32.5 12.6924
      vertex 1.72472 -37.5 13.4096
      vertex 1.72472 -32.5 13.4096
    endloop
  endfacet
  facet normal -0.587785 0 -0.809017
    outer loop
      vertex 8.25 -37.5 11.2894
      vertex 11.0407 -32.5 9.26189
      vertex 11.0407 -37.5 9.26189
    endloop
  endfacet
  facet normal -0.587785 0 -0.809017
    outer loop
      vertex 11.0407 -32.5 9.26189
      vertex 8.25 -37.5 11.2894
      vertex 8.25 -32.5 11.2894
    endloop
  endfacet
  facet normal -0.406737 0 0.913545
    outer loop
      vertex 5.09878 -32.5 -18.6924
      vertex 8.25 -37.5 -17.2894
      vertex 8.25 -32.5 -17.2894
    endloop
  endfacet
  facet normal -0.406737 0 0.913545
    outer loop
      vertex 8.25 -37.5 -17.2894
      vertex 5.09878 -32.5 -18.6924
      vertex 5.09878 -37.5 -18.6924
    endloop
  endfacet
  facet normal -0.994522 0 0.10453
    outer loop
      vertex 16.2167 -37.5 -5.69543
      vertex 16.1394 -32.5 -6.43054
      vertex 16.1394 -37.5 -6.43054
    endloop
  endfacet
  facet normal -0.994522 -1.77782e-07 0.104529
    outer loop
      vertex 16.1394 -32.5 -6.43054
      vertex 16.2167 -37.5 -5.69543
      vertex 16.4742 -32.5 -3.24504
    endloop
  endfacet
  facet normal -0.994522 -5.49315e-08 0.104528
    outer loop
      vertex 16.5 -37.5 -3
      vertex 16.4742 -32.5 -3.24504
      vertex 16.2167 -37.5 -5.69543
    endloop
  endfacet
  facet normal -0.994522 1.49531e-08 0.10453
    outer loop
      vertex 16.4742 -32.5 -3.24504
      vertex 16.5 -37.5 -3
      vertex 16.5 -32.5 -3
    endloop
  endfacet
  facet normal 0.743145 0 -0.669131
    outer loop
      vertex -11.0407 -37.5 9.26189
      vertex -13.3488 -32.5 6.69846
      vertex -11.0407 -32.5 9.26189
    endloop
  endfacet
  facet normal 0.743145 0 -0.669131
    outer loop
      vertex -13.3488 -32.5 6.69846
      vertex -11.0407 -37.5 9.26189
      vertex -13.3488 -37.5 6.69846
    endloop
  endfacet
  facet normal 0 0 -1
    outer loop
      vertex -1.72472 -37.5 13.4096
      vertex 1.72472 -32.5 13.4096
      vertex 1.72472 -37.5 13.4096
    endloop
  endfacet
  facet normal -0 0 -1
    outer loop
      vertex 1.72472 -32.5 13.4096
      vertex -1.72472 -37.5 13.4096
      vertex -1.72472 -32.5 13.4096
    endloop
  endfacet
  facet normal -0.743145 0 -0.669131
    outer loop
      vertex 13.3488 -37.5 6.69846
      vertex 11.0407 -32.5 9.26189
      vertex 13.3488 -32.5 6.69846
    endloop
  endfacet
  facet normal -0.743145 -0 -0.669131
    outer loop
      vertex 11.0407 -32.5 9.26189
      vertex 13.3488 -37.5 6.69846
      vertex 11.0407 -37.5 9.26189
    endloop
  endfacet
  facet normal 0.866025 -0 0.5
    outer loop
      vertex -15.0735 -37.5 -9.71115
      vertex -13.3488 -32.5 -12.6985
      vertex -15.0735 -32.5 -9.71115
    endloop
  endfacet
  facet normal 0.866025 0 0.5
    outer loop
      vertex -13.3488 -32.5 -12.6985
      vertex -15.0735 -37.5 -9.71115
      vertex -13.3488 -37.5 -12.6985
    endloop
  endfacet
  facet normal 0.743145 -0 0.669131
    outer loop
      vertex -13.3488 -37.5 -12.6985
      vertex -11.0407 -32.5 -15.2619
      vertex -13.3488 -32.5 -12.6985
    endloop
  endfacet
  facet normal 0.743145 0 0.669131
    outer loop
      vertex -11.0407 -32.5 -15.2619
      vertex -13.3488 -37.5 -12.6985
      vertex -11.0407 -37.5 -15.2619
    endloop
  endfacet
  facet normal -0.743145 0 0.669131
    outer loop
      vertex 11.0407 -37.5 -15.2619
      vertex 13.3488 -32.5 -12.6985
      vertex 11.0407 -32.5 -15.2619
    endloop
  endfacet
  facet normal -0.743145 0 0.669131
    outer loop
      vertex 13.3488 -32.5 -12.6985
      vertex 11.0407 -37.5 -15.2619
      vertex 13.3488 -37.5 -12.6985
    endloop
  endfacet
  facet normal 0.587785 0 0.809017
    outer loop
      vertex -11.0407 -32.5 -15.2619
      vertex -8.25 -37.5 -17.2894
      vertex -8.25 -32.5 -17.2894
    endloop
  endfacet
  facet normal 0.587785 0 0.809017
    outer loop
      vertex -8.25 -37.5 -17.2894
      vertex -11.0407 -32.5 -15.2619
      vertex -11.0407 -37.5 -15.2619
    endloop
  endfacet
  facet normal 0.406737 0 0.913545
    outer loop
      vertex -8.25 -32.5 -17.2894
      vertex -5.09878 -37.5 -18.6924
      vertex -5.09878 -32.5 -18.6924
    endloop
  endfacet
  facet normal 0.406737 0 0.913545
    outer loop
      vertex -5.09878 -37.5 -18.6924
      vertex -8.25 -32.5 -17.2894
      vertex -8.25 -37.5 -17.2894
    endloop
  endfacet
  facet normal 0.207912 0 0.978148
    outer loop
      vertex -5.09878 -32.5 -18.6924
      vertex -1.72472 -37.5 -19.4096
      vertex -1.72472 -32.5 -19.4096
    endloop
  endfacet
  facet normal 0.207912 0 0.978148
    outer loop
      vertex -1.72472 -37.5 -19.4096
      vertex -5.09878 -32.5 -18.6924
      vertex -5.09878 -37.5 -18.6924
    endloop
  endfacet
  facet normal -0 0 1
    outer loop
      vertex -1.72472 -32.5 -19.4096
      vertex 1.72472 -37.5 -19.4096
      vertex 1.72472 -32.5 -19.4096
    endloop
  endfacet
  facet normal 0 0 1
    outer loop
      vertex 1.72472 -37.5 -19.4096
      vertex -1.72472 -32.5 -19.4096
      vertex -1.72472 -37.5 -19.4096
    endloop
  endfacet
  facet normal -0.994522 1.74427e-07 -0.104529
    outer loop
      vertex 16.1394 32.5 0.430542
      vertex 16.2167 37.5 -0.304574
      vertex 16.4742 32.5 -2.75496
    endloop
  endfacet
  facet normal -0.994522 0 -0.10453
    outer loop
      vertex 16.2167 37.5 -0.304574
      vertex 16.1394 32.5 0.430542
      vertex 16.1394 37.5 0.430542
    endloop
  endfacet
  facet normal -0.866025 0 -0.5
    outer loop
      vertex 15.0735 32.5 3.71115
      vertex 13.3488 37.5 6.69846
      vertex 15.0735 37.5 3.71115
    endloop
  endfacet
  facet normal -0.866025 -0 -0.5
    outer loop
      vertex 13.3488 37.5 6.69846
      vertex 15.0735 32.5 3.71115
      vertex 13.3488 32.5 6.69846
    endloop
  endfacet
  facet normal -0.994522 -1.49531e-08 -0.10453
    outer loop
      vertex 16.4742 32.5 -2.75496
      vertex 16.5 37.5 -3
      vertex 16.5 32.5 -3
    endloop
  endfacet
  facet normal -0.994522 5.32323e-08 -0.104528
    outer loop
      vertex 16.5 37.5 -3
      vertex 16.4742 32.5 -2.75496
      vertex 16.2167 37.5 -0.304574
    endloop
  endfacet
  facet normal 0.866025 -0 0.5
    outer loop
      vertex -15.0735 32.5 -9.71115
      vertex -13.3488 37.5 -12.6985
      vertex -15.0735 37.5 -9.71115
    endloop
  endfacet
  facet normal 0.866025 0 0.5
    outer loop
      vertex -13.3488 37.5 -12.6985
      vertex -15.0735 32.5 -9.71115
      vertex -13.3488 32.5 -12.6985
    endloop
  endfacet
  facet normal 0.994522 -0 0.104529
    outer loop
      vertex -16.5 32.5 -3
      vertex -16.1394 37.5 -6.43054
      vertex -16.5 37.5 -3
    endloop
  endfacet
  facet normal 0.994522 0 0.104529
    outer loop
      vertex -16.1394 37.5 -6.43054
      vertex -16.5 32.5 -3
      vertex -16.1394 32.5 -6.43054
    endloop
  endfacet
  facet normal -0.994522 -1.58612e-07 0.104529
    outer loop
      vertex 16.5 32.5 -3
      vertex 16.4227 37.5 -3.73512
      vertex 16.1652 32.5 -6.1855
    endloop
  endfacet
  facet normal -0.994522 1.49531e-08 0.10453
    outer loop
      vertex 16.4227 37.5 -3.73512
      vertex 16.5 32.5 -3
      vertex 16.5 37.5 -3
    endloop
  endfacet
  facet normal 0.207912 0 0.978148
    outer loop
      vertex -5.09878 37.5 -18.6924
      vertex -1.72472 32.5 -19.4096
      vertex -1.72472 37.5 -19.4096
    endloop
  endfacet
  facet normal 0.207912 0 0.978148
    outer loop
      vertex -1.72472 32.5 -19.4096
      vertex -5.09878 37.5 -18.6924
      vertex -5.09878 32.5 -18.6924
    endloop
  endfacet
  facet normal 0 0 -1
    outer loop
      vertex -1.72472 32.5 13.4096
      vertex 1.72472 37.5 13.4096
      vertex 1.72472 32.5 13.4096
    endloop
  endfacet
  facet normal -0 0 -1
    outer loop
      vertex 1.72472 37.5 13.4096
      vertex -1.72472 32.5 13.4096
      vertex -1.72472 37.5 13.4096
    endloop
  endfacet
  facet normal -0.207912 0 -0.978148
    outer loop
      vertex 1.72472 32.5 13.4096
      vertex 5.09878 37.5 12.6924
      vertex 5.09878 32.5 12.6924
    endloop
  endfacet
  facet normal -0.207912 0 -0.978148
    outer loop
      vertex 5.09878 37.5 12.6924
      vertex 1.72472 32.5 13.4096
      vertex 1.72472 37.5 13.4096
    endloop
  endfacet
  facet normal 0.951057 0 -0.309017
    outer loop
      vertex -15.0735 32.5 3.71115
      vertex -16.1394 37.5 0.430542
      vertex -15.0735 37.5 3.71115
    endloop
  endfacet
  facet normal 0.951057 0 -0.309017
    outer loop
      vertex -16.1394 37.5 0.430542
      vertex -15.0735 32.5 3.71115
      vertex -16.1394 32.5 0.430542
    endloop
  endfacet
  facet normal 0.587785 0 -0.809017
    outer loop
      vertex -11.0407 32.5 9.26189
      vertex -8.25 37.5 11.2894
      vertex -8.25 32.5 11.2894
    endloop
  endfacet
  facet normal 0.587785 0 -0.809017
    outer loop
      vertex -8.25 37.5 11.2894
      vertex -11.0407 32.5 9.26189
      vertex -11.0407 37.5 9.26189
    endloop
  endfacet
  facet normal 0.994522 0 -0.104529
    outer loop
      vertex -16.1394 32.5 0.430542
      vertex -16.5 37.5 -3
      vertex -16.1394 37.5 0.430542
    endloop
  endfacet
  facet normal 0.994522 0 -0.104529
    outer loop
      vertex -16.5 37.5 -3
      vertex -16.1394 32.5 0.430542
      vertex -16.5 32.5 -3
    endloop
  endfacet
  facet normal -0.587785 0 -0.809017
    outer loop
      vertex 8.25 32.5 11.2894
      vertex 11.0407 37.5 9.26189
      vertex 11.0407 32.5 9.26189
    endloop
  endfacet
  facet normal -0.587785 0 -0.809017
    outer loop
      vertex 11.0407 37.5 9.26189
      vertex 8.25 32.5 11.2894
      vertex 8.25 37.5 11.2894
    endloop
  endfacet
  facet normal -0.743145 0 -0.669131
    outer loop
      vertex 13.3488 32.5 6.69846
      vertex 11.0407 37.5 9.26189
      vertex 13.3488 37.5 6.69846
    endloop
  endfacet
  facet normal -0.743145 -0 -0.669131
    outer loop
      vertex 11.0407 37.5 9.26189
      vertex 13.3488 32.5 6.69846
      vertex 11.0407 32.5 9.26189
    endloop
  endfacet
  facet normal -0.866025 0 0.5
    outer loop
      vertex 13.3488 32.5 -12.6985
      vertex 15.0735 37.5 -9.71115
      vertex 13.3488 37.5 -12.6985
    endloop
  endfacet
  facet normal -0.866025 0 0.5
    outer loop
      vertex 15.0735 37.5 -9.71115
      vertex 13.3488 32.5 -12.6985
      vertex 15.0735 32.5 -9.71115
    endloop
  endfacet
  facet normal 0.207912 0 -0.978148
    outer loop
      vertex -5.09878 32.5 12.6924
      vertex -1.72472 37.5 13.4096
      vertex -1.72472 32.5 13.4096
    endloop
  endfacet
  facet normal 0.207912 0 -0.978148
    outer loop
      vertex -1.72472 37.5 13.4096
      vertex -5.09878 32.5 12.6924
      vertex -5.09878 37.5 12.6924
    endloop
  endfacet
  facet normal -0.406737 0 -0.913545
    outer loop
      vertex 5.09878 32.5 12.6924
      vertex 8.25 37.5 11.2894
      vertex 8.25 32.5 11.2894
    endloop
  endfacet
  facet normal -0.406737 0 -0.913545
    outer loop
      vertex 8.25 37.5 11.2894
      vertex 5.09878 32.5 12.6924
      vertex 5.09878 37.5 12.6924
    endloop
  endfacet
  facet normal 0.951057 -0 0.309017
    outer loop
      vertex -16.1394 32.5 -6.43054
      vertex -15.0735 37.5 -9.71115
      vertex -16.1394 37.5 -6.43054
    endloop
  endfacet
  facet normal 0.951057 0 0.309017
    outer loop
      vertex -15.0735 37.5 -9.71115
      vertex -16.1394 32.5 -6.43054
      vertex -15.0735 32.5 -9.71115
    endloop
  endfacet
  facet normal -0.951057 0 0.309017
    outer loop
      vertex 15.0735 32.5 -9.71115
      vertex 16.1394 37.5 -6.43054
      vertex 15.0735 37.5 -9.71115
    endloop
  endfacet
  facet normal -0.951057 0 0.309017
    outer loop
      vertex 16.1394 37.5 -6.43054
      vertex 15.0735 32.5 -9.71115
      vertex 16.1394 32.5 -6.43054
    endloop
  endfacet
  facet normal -0.994522 0 0.10453
    outer loop
      vertex 16.1652 32.5 -6.1855
      vertex 16.1394 37.5 -6.43054
      vertex 16.1394 32.5 -6.43054
    endloop
  endfacet
  facet normal -0.994522 -7.30562e-08 0.104528
    outer loop
      vertex 16.1394 37.5 -6.43054
      vertex 16.1652 32.5 -6.1855
      vertex 16.4227 37.5 -3.73512
    endloop
  endfacet
  facet normal -0.951057 0 -0.309017
    outer loop
      vertex 16.1394 32.5 0.430542
      vertex 15.0735 37.5 3.71115
      vertex 16.1394 37.5 0.430542
    endloop
  endfacet
  facet normal -0.951057 -0 -0.309017
    outer loop
      vertex 15.0735 37.5 3.71115
      vertex 16.1394 32.5 0.430542
      vertex 15.0735 32.5 3.71115
    endloop
  endfacet
  facet normal -0 0 1
    outer loop
      vertex -1.72472 37.5 -19.4096
      vertex 1.72472 32.5 -19.4096
      vertex 1.72472 37.5 -19.4096
    endloop
  endfacet
  facet normal 0 0 1
    outer loop
      vertex 1.72472 32.5 -19.4096
      vertex -1.72472 37.5 -19.4096
      vertex -1.72472 32.5 -19.4096
    endloop
  endfacet
  facet normal -0.207912 0 0.978148
    outer loop
      vertex 1.72472 37.5 -19.4096
      vertex 5.09878 32.5 -18.6924
      vertex 5.09878 37.5 -18.6924
    endloop
  endfacet
  facet normal -0.207912 0 0.978148
    outer loop
      vertex 5.09878 32.5 -18.6924
      vertex 1.72472 37.5 -19.4096
      vertex 1.72472 32.5 -19.4096
    endloop
  endfacet
  facet normal -0.406737 0 0.913545
    outer loop
      vertex 5.09878 37.5 -18.6924
      vertex 8.25 32.5 -17.2894
      vertex 8.25 37.5 -17.2894
    endloop
  endfacet
  facet normal -0.406737 0 0.913545
    outer loop
      vertex 8.25 32.5 -17.2894
      vertex 5.09878 37.5 -18.6924
      vertex 5.09878 32.5 -18.6924
    endloop
  endfacet
  facet normal 0.587785 0 0.809017
    outer loop
      vertex -11.0407 37.5 -15.2619
      vertex -8.25 32.5 -17.2894
      vertex -8.25 37.5 -17.2894
    endloop
  endfacet
  facet normal 0.587785 0 0.809017
    outer loop
      vertex -8.25 32.5 -17.2894
      vertex -11.0407 37.5 -15.2619
      vertex -11.0407 32.5 -15.2619
    endloop
  endfacet
  facet normal 0.406737 0 -0.913545
    outer loop
      vertex -8.25 32.5 11.2894
      vertex -5.09878 37.5 12.6924
      vertex -5.09878 32.5 12.6924
    endloop
  endfacet
  facet normal 0.406737 0 -0.913545
    outer loop
      vertex -5.09878 37.5 12.6924
      vertex -8.25 32.5 11.2894
      vertex -8.25 37.5 11.2894
    endloop
  endfacet
  facet normal 0.743145 0 -0.669131
    outer loop
      vertex -11.0407 32.5 9.26189
      vertex -13.3488 37.5 6.69846
      vertex -11.0407 37.5 9.26189
    endloop
  endfacet
  facet normal 0.743145 0 -0.669131
    outer loop
      vertex -13.3488 37.5 6.69846
      vertex -11.0407 32.5 9.26189
      vertex -13.3488 32.5 6.69846
    endloop
  endfacet
  facet normal 0.866025 0 -0.5
    outer loop
      vertex -13.3488 32.5 6.69846
      vertex -15.0735 37.5 3.71115
      vertex -13.3488 37.5 6.69846
    endloop
  endfacet
  facet normal 0.866025 0 -0.5
    outer loop
      vertex -15.0735 37.5 3.71115
      vertex -13.3488 32.5 6.69846
      vertex -15.0735 32.5 3.71115
    endloop
  endfacet
  facet normal -0.743145 0 0.669131
    outer loop
      vertex 11.0407 32.5 -15.2619
      vertex 13.3488 37.5 -12.6985
      vertex 11.0407 37.5 -15.2619
    endloop
  endfacet
  facet normal -0.743145 0 0.669131
    outer loop
      vertex 13.3488 37.5 -12.6985
      vertex 11.0407 32.5 -15.2619
      vertex 13.3488 32.5 -12.6985
    endloop
  endfacet
  facet normal -0.587785 0 0.809017
    outer loop
      vertex 8.25 37.5 -17.2894
      vertex 11.0407 32.5 -15.2619
      vertex 11.0407 37.5 -15.2619
    endloop
  endfacet
  facet normal -0.587785 0 0.809017
    outer loop
      vertex 11.0407 32.5 -15.2619
      vertex 8.25 37.5 -17.2894
      vertex 8.25 32.5 -17.2894
    endloop
  endfacet
  facet normal 0.406737 0 0.913545
    outer loop
      vertex -8.25 37.5 -17.2894
      vertex -5.09878 32.5 -18.6924
      vertex -5.09878 37.5 -18.6924
    endloop
  endfacet
  facet normal 0.406737 0 0.913545
    outer loop
      vertex -5.09878 32.5 -18.6924
      vertex -8.25 37.5 -17.2894
      vertex -8.25 32.5 -17.2894
    endloop
  endfacet
  facet normal 0.743145 -0 0.669131
    outer loop
      vertex -13.3488 32.5 -12.6985
      vertex -11.0407 37.5 -15.2619
      vertex -13.3488 37.5 -12.6985
    endloop
  endfacet
  facet normal 0.743145 0 0.669131
    outer loop
      vertex -11.0407 37.5 -15.2619
      vertex -13.3488 32.5 -12.6985
      vertex -11.0407 32.5 -15.2619
    endloop
  endfacet
  facet normal -0.978149 0 -0.207906
    outer loop
      vertex -38.775 32.5 -17.625
      vertex -38.8809 37.5 -17.1267
      vertex -38.775 37.5 -17.625
    endloop
  endfacet
  facet normal -0.978149 -0 -0.207906
    outer loop
      vertex -38.8809 37.5 -17.1267
      vertex -38.775 32.5 -17.625
      vertex -38.8809 32.5 -17.1267
    endloop
  endfacet
  facet normal 1 -0 0
    outer loop
      vertex -41.1982 32.5 -17.3703
      vertex -41.1982 37.5 -17.8797
      vertex -41.1982 37.5 -17.3703
    endloop
  endfacet
  facet normal 1 0 0
    outer loop
      vertex -41.1982 37.5 -17.8797
      vertex -41.1982 32.5 -17.3703
      vertex -41.1982 32.5 -17.8797
    endloop
  endfacet
  facet normal -0.104529 0 0.994522
    outer loop
      vertex -40.128 37.5 -18.8433
      vertex -39.6215 32.5 -18.79
      vertex -39.6215 37.5 -18.79
    endloop
  endfacet
  facet normal -0.104529 0 0.994522
    outer loop
      vertex -39.6215 32.5 -18.79
      vertex -40.128 37.5 -18.8433
      vertex -40.128 32.5 -18.8433
    endloop
  endfacet
  facet normal -0.5 0 -0.866025
    outer loop
      vertex -39.6215 32.5 -16.46
      vertex -39.1803 37.5 -16.7146
      vertex -39.1803 32.5 -16.7146
    endloop
  endfacet
  facet normal -0.5 0 -0.866025
    outer loop
      vertex -39.1803 37.5 -16.7146
      vertex -39.6215 32.5 -16.46
      vertex -39.6215 37.5 -16.46
    endloop
  endfacet
  facet normal 0.309014 0 -0.951058
    outer loop
      vertex -40.6125 32.5 -16.5641
      vertex -40.128 37.5 -16.4067
      vertex -40.128 32.5 -16.4067
    endloop
  endfacet
  facet normal 0.309014 0 -0.951058
    outer loop
      vertex -40.128 37.5 -16.4067
      vertex -40.6125 32.5 -16.5641
      vertex -40.6125 37.5 -16.5641
    endloop
  endfacet
  facet normal -0.104525 0 -0.994522
    outer loop
      vertex -40.128 32.5 -16.4067
      vertex -39.6215 37.5 -16.46
      vertex -39.6215 32.5 -16.46
    endloop
  endfacet
  facet normal -0.104525 0 -0.994522
    outer loop
      vertex -39.6215 37.5 -16.46
      vertex -40.128 32.5 -16.4067
      vertex -40.128 37.5 -16.4067
    endloop
  endfacet
  facet normal -0.809016 0 0.587787
    outer loop
      vertex -39.1803 32.5 -18.5354
      vertex -38.8809 37.5 -18.1233
      vertex -39.1803 37.5 -18.5354
    endloop
  endfacet
  facet normal -0.809016 0 0.587787
    outer loop
      vertex -38.8809 37.5 -18.1233
      vertex -39.1803 32.5 -18.5354
      vertex -38.8809 32.5 -18.1233
    endloop
  endfacet
  facet normal 0.309017 0 0.951057
    outer loop
      vertex -40.6125 37.5 -18.6859
      vertex -40.128 32.5 -18.8433
      vertex -40.128 37.5 -18.8433
    endloop
  endfacet
  facet normal 0.309017 0 0.951057
    outer loop
      vertex -40.128 32.5 -18.8433
      vertex -40.6125 37.5 -18.6859
      vertex -40.6125 32.5 -18.6859
    endloop
  endfacet
  facet normal -0.809017 0 -0.587785
    outer loop
      vertex -38.8809 32.5 -17.1267
      vertex -39.1803 37.5 -16.7146
      vertex -38.8809 37.5 -17.1267
    endloop
  endfacet
  facet normal -0.809017 -0 -0.587785
    outer loop
      vertex -39.1803 37.5 -16.7146
      vertex -38.8809 32.5 -17.1267
      vertex -39.1803 32.5 -16.7146
    endloop
  endfacet
  facet normal 0.669134 0 -0.743142
    outer loop
      vertex -40.991 32.5 -16.905
      vertex -40.6125 37.5 -16.5641
      vertex -40.6125 32.5 -16.5641
    endloop
  endfacet
  facet normal 0.669134 0 -0.743142
    outer loop
      vertex -40.6125 37.5 -16.5641
      vertex -40.991 32.5 -16.905
      vertex -40.991 37.5 -16.905
    endloop
  endfacet
  facet normal 0.913544 0 -0.406741
    outer loop
      vertex -40.991 32.5 -16.905
      vertex -41.1982 37.5 -17.3703
      vertex -40.991 37.5 -16.905
    endloop
  endfacet
  facet normal 0.913544 0 -0.406741
    outer loop
      vertex -41.1982 37.5 -17.3703
      vertex -40.991 32.5 -16.905
      vertex -41.1982 32.5 -17.3703
    endloop
  endfacet
  facet normal -0.5 0 0.866025
    outer loop
      vertex -39.6215 37.5 -18.79
      vertex -39.1803 32.5 -18.5354
      vertex -39.1803 37.5 -18.5354
    endloop
  endfacet
  facet normal -0.5 0 0.866025
    outer loop
      vertex -39.1803 32.5 -18.5354
      vertex -39.6215 37.5 -18.79
      vertex -39.6215 32.5 -18.79
    endloop
  endfacet
  facet normal 0.913543 -0 0.406742
    outer loop
      vertex -41.1982 32.5 -17.8797
      vertex -40.991 37.5 -18.345
      vertex -41.1982 37.5 -17.8797
    endloop
  endfacet
  facet normal 0.913543 0 0.406742
    outer loop
      vertex -40.991 37.5 -18.345
      vertex -41.1982 32.5 -17.8797
      vertex -40.991 32.5 -18.345
    endloop
  endfacet
  facet normal 0.669134 0 0.743142
    outer loop
      vertex -40.991 37.5 -18.345
      vertex -40.6125 32.5 -18.6859
      vertex -40.6125 37.5 -18.6859
    endloop
  endfacet
  facet normal 0.669134 0 0.743142
    outer loop
      vertex -40.6125 32.5 -18.6859
      vertex -40.991 37.5 -18.345
      vertex -40.991 32.5 -18.345
    endloop
  endfacet
  facet normal -0.978149 0 0.207906
    outer loop
      vertex -38.8809 32.5 -18.1233
      vertex -38.775 37.5 -17.625
      vertex -38.8809 37.5 -18.1233
    endloop
  endfacet
  facet normal -0.978149 0 0.207906
    outer loop
      vertex -38.775 37.5 -17.625
      vertex -38.8809 32.5 -18.1233
      vertex -38.775 32.5 -17.625
    endloop
  endfacet
  facet normal -0.978149 0 -0.207906
    outer loop
      vertex -38.775 -37.5 -17.625
      vertex -38.8809 -32.5 -17.1267
      vertex -38.775 -32.5 -17.625
    endloop
  endfacet
  facet normal -0.978149 -0 -0.207906
    outer loop
      vertex -38.8809 -32.5 -17.1267
      vertex -38.775 -37.5 -17.625
      vertex -38.8809 -37.5 -17.1267
    endloop
  endfacet
  facet normal 1 -0 0
    outer loop
      vertex -41.1982 -37.5 -17.3703
      vertex -41.1982 -32.5 -17.8797
      vertex -41.1982 -32.5 -17.3703
    endloop
  endfacet
  facet normal 1 0 0
    outer loop
      vertex -41.1982 -32.5 -17.8797
      vertex -41.1982 -37.5 -17.3703
      vertex -41.1982 -37.5 -17.8797
    endloop
  endfacet
  facet normal -0.104529 0 0.994522
    outer loop
      vertex -40.128 -32.5 -18.8433
      vertex -39.6215 -37.5 -18.79
      vertex -39.6215 -32.5 -18.79
    endloop
  endfacet
  facet normal -0.104529 0 0.994522
    outer loop
      vertex -39.6215 -37.5 -18.79
      vertex -40.128 -32.5 -18.8433
      vertex -40.128 -37.5 -18.8433
    endloop
  endfacet
  facet normal -0.5 0 -0.866025
    outer loop
      vertex -39.6215 -37.5 -16.46
      vertex -39.1803 -32.5 -16.7146
      vertex -39.1803 -37.5 -16.7146
    endloop
  endfacet
  facet normal -0.5 0 -0.866025
    outer loop
      vertex -39.1803 -32.5 -16.7146
      vertex -39.6215 -37.5 -16.46
      vertex -39.6215 -32.5 -16.46
    endloop
  endfacet
  facet normal 0.309014 0 -0.951058
    outer loop
      vertex -40.6125 -37.5 -16.5641
      vertex -40.128 -32.5 -16.4067
      vertex -40.128 -37.5 -16.4067
    endloop
  endfacet
  facet normal 0.309014 0 -0.951058
    outer loop
      vertex -40.128 -32.5 -16.4067
      vertex -40.6125 -37.5 -16.5641
      vertex -40.6125 -32.5 -16.5641
    endloop
  endfacet
  facet normal -0.104525 0 -0.994522
    outer loop
      vertex -40.128 -37.5 -16.4067
      vertex -39.6215 -32.5 -16.46
      vertex -39.6215 -37.5 -16.46
    endloop
  endfacet
  facet normal -0.104525 0 -0.994522
    outer loop
      vertex -39.6215 -32.5 -16.46
      vertex -40.128 -37.5 -16.4067
      vertex -40.128 -32.5 -16.4067
    endloop
  endfacet
  facet normal 0.913544 0 -0.406741
    outer loop
      vertex -40.991 -37.5 -16.905
      vertex -41.1982 -32.5 -17.3703
      vertex -40.991 -32.5 -16.905
    endloop
  endfacet
  facet normal 0.913544 0 -0.406741
    outer loop
      vertex -41.1982 -32.5 -17.3703
      vertex -40.991 -37.5 -16.905
      vertex -41.1982 -37.5 -17.3703
    endloop
  endfacet
  facet normal -0.809016 0 0.587787
    outer loop
      vertex -39.1803 -37.5 -18.5354
      vertex -38.8809 -32.5 -18.1233
      vertex -39.1803 -32.5 -18.5354
    endloop
  endfacet
  facet normal -0.809016 0 0.587787
    outer loop
      vertex -38.8809 -32.5 -18.1233
      vertex -39.1803 -37.5 -18.5354
      vertex -38.8809 -37.5 -18.1233
    endloop
  endfacet
  facet normal 0.309017 0 0.951057
    outer loop
      vertex -40.6125 -32.5 -18.6859
      vertex -40.128 -37.5 -18.8433
      vertex -40.128 -32.5 -18.8433
    endloop
  endfacet
  facet normal 0.309017 0 0.951057
    outer loop
      vertex -40.128 -37.5 -18.8433
      vertex -40.6125 -32.5 -18.6859
      vertex -40.6125 -37.5 -18.6859
    endloop
  endfacet
  facet normal -0.809017 0 -0.587785
    outer loop
      vertex -38.8809 -37.5 -17.1267
      vertex -39.1803 -32.5 -16.7146
      vertex -38.8809 -32.5 -17.1267
    endloop
  endfacet
  facet normal -0.809017 -0 -0.587785
    outer loop
      vertex -39.1803 -32.5 -16.7146
      vertex -38.8809 -37.5 -17.1267
      vertex -39.1803 -37.5 -16.7146
    endloop
  endfacet
  facet normal 0.669134 0 -0.743142
    outer loop
      vertex -40.991 -37.5 -16.905
      vertex -40.6125 -32.5 -16.5641
      vertex -40.6125 -37.5 -16.5641
    endloop
  endfacet
  facet normal 0.669134 0 -0.743142
    outer loop
      vertex -40.6125 -32.5 -16.5641
      vertex -40.991 -37.5 -16.905
      vertex -40.991 -32.5 -16.905
    endloop
  endfacet
  facet normal -0.5 0 0.866025
    outer loop
      vertex -39.6215 -32.5 -18.79
      vertex -39.1803 -37.5 -18.5354
      vertex -39.1803 -32.5 -18.5354
    endloop
  endfacet
  facet normal -0.5 0 0.866025
    outer loop
      vertex -39.1803 -37.5 -18.5354
      vertex -39.6215 -32.5 -18.79
      vertex -39.6215 -37.5 -18.79
    endloop
  endfacet
  facet normal 0.913543 -0 0.406742
    outer loop
      vertex -41.1982 -37.5 -17.8797
      vertex -40.991 -32.5 -18.345
      vertex -41.1982 -32.5 -17.8797
    endloop
  endfacet
  facet normal 0.913543 0 0.406742
    outer loop
      vertex -40.991 -32.5 -18.345
      vertex -41.1982 -37.5 -17.8797
      vertex -40.991 -37.5 -18.345
    endloop
  endfacet
  facet normal 0.669134 0 0.743142
    outer loop
      vertex -40.991 -32.5 -18.345
      vertex -40.6125 -37.5 -18.6859
      vertex -40.6125 -32.5 -18.6859
    endloop
  endfacet
  facet normal 0.669134 0 0.743142
    outer loop
      vertex -40.6125 -37.5 -18.6859
      vertex -40.991 -32.5 -18.345
      vertex -40.991 -37.5 -18.345
    endloop
  endfacet
  facet normal -0.978149 0 0.207906
    outer loop
      vertex -38.8809 -37.5 -18.1233
      vertex -38.775 -32.5 -17.625
      vertex -38.8809 -32.5 -18.1233
    endloop
  endfacet
  facet normal -0.978149 0 0.207906
    outer loop
      vertex -38.775 -32.5 -17.625
      vertex -38.8809 -37.5 -18.1233
      vertex -38.775 -37.5 -17.625
    endloop
  endfacet
  facet normal 1 -0 0
    outer loop
      vertex 22.5 -37.5 16
      vertex 22.5 -32.5 -23.5
      vertex 22.5 -32.5 16
    endloop
  endfacet
  facet normal 1 0 0
    outer loop
      vertex 22.5 -32.5 -23.5
      vertex 22.5 -37.5 16
      vertex 22.5 -37.5 -23.5
    endloop
  endfacet
  facet normal 1 -0 0
    outer loop
      vertex 22.5 32.5 16
      vertex 22.5 37.5 -23.5
      vertex 22.5 37.5 16
    endloop
  endfacet
  facet normal 1 0 0
    outer loop
      vertex 22.5 37.5 -23.5
      vertex 22.5 32.5 16
      vertex 22.5 32.5 -23.5
    endloop
  endfacet
endsolid OpenSCAD_Model
